<svg width="800" height="600" xmlns="http://www.w3.org/2000/svg">
    <defs>
        <linearGradient id="bg-gradient" x1="0%" y1="0%" x2="100%" y2="100%">
            <stop offset="0%" style="stop-color:#1a1a2e;stop-opacity:1" />
            <stop offset="100%" style="stop-color:#16213e;stop-opacity:1" />
        </linearGradient>
        <filter id="glow">
            <feGaussianBlur stdDeviation="2.5" result="coloredBlur"/>
            <feMerge>
                <feMergeNode in="coloredBlur"/>
                <feMergeNode in="SourceGraphic"/>
            </feMerge>
        </filter>
    </defs>

    <!-- Background -->
    <rect width="800" height="600" fill="url(#bg-gradient)" />

    <!-- Grid lines -->
    <g stroke="#ffffff20" stroke-width="0.5">
        <line x1="50" y1="50" x2="50" y2="550" />
        <line x1="50" y1="550" x2="750" y2="550" />
        <line x1="50" y1="300" x2="750" y2="300" stroke-dasharray="5,5" />
    </g>

    <!-- Axis labels -->
    <text x="400" y="590" fill="#ffffff" font-family="Arial, sans-serif" font-size="16" text-anchor="middle">Training Steps</text>
    <text x="30" y="300" fill="#ffffff" font-family="Arial, sans-serif" font-size="16" text-anchor="middle" transform="rotate(-90 30 300)">Training Loss</text>

    <!-- Title -->
    <text x="400" y="30" fill="#ffffff" font-family="Arial, sans-serif" font-size="24" font-weight="bold" text-anchor="middle">Training Loss Curve</text>

    <!-- Data points and line -->
    <polyline
        fill="none"
        stroke="#00ffff"
        stroke-width="2"
        points="
            50,153.93 
            60,149.45 
            70,128.35 
            80,193.69 
            90,189.38 
            100,158.33 
            110,271.35 
            120,251.5 
            130,278.38 
            140,251.38 
            150,304.93 
            160,317.9 
            170,332.6 
            180,325.38 
            190,336.4 
            200,335.33 
            210,356.5 
            220,381.38 
            230,355.5 
            240,360.93 
            250,368.33 
            260,387.83 
            270,396.7 
            280,389.53 
            300,418.93 
            310,442.23 
            320,414.83 
            330,421.93 
            340,401.65 
            350,411.38 
            360,456.75 
            370,432.3 
            380,440.93 
            390,431.55 
            400,436.18 
            410,445.88 
            420,432.63 
            430,451.5 
            440,438.2 
            450,450.6 
            460,467.53 
            470,436.63 
            480,446.23 
            490,459.9 
            500,464.45 
            510,452.53 
            520,458.2 
            530,447.8 
            540,446.83 
            550,464.6 
            560,463.1 
            570,467.73 
            580,469.7 
            590,475.7 
            600,458.23 
            610,457.98 
            620,472.98 
            630,472.3 
            640,471.23 
            650,462.9 
            660,479.7 
            670,468.2 
            680,447.55 
            690,501.65 
            700,446.38 
            710,473.65 
            720,478.03 
            730,464.9 
            740,482.33
        "
        filter="url(#glow)"
    />

    <!-- Start and end markers -->
    <circle cx="50" cy="153.93" r="4" fill="#ff00ff" />
    <circle cx="740" cy="482.33" r="4" fill="#ff00ff" />

    <!-- Legend -->
    <rect x="600" y="50" width="150" height="60" fill="#ffffff10" rx="5" ry="5" />
    <text x="610" y="75" fill="#ffffff" font-family="Arial, sans-serif" font-size="14">Legend:</text>
    <line x1="610" y1="90" x2="640" y2="90" stroke="#00ffff" stroke-width="2" />
    <text x="650" y="95" fill="#ffffff" font-family="Arial, sans-serif" font-size="12">Training Loss</text>
</svg>